{
  "asset": {
    "version": "2.0",
    "generator": "Sketchup glTF Exporter v1.2.6 by Centaur"
  },
  "scene": 0,
  "scenes": [
    {
      "nodes": [
        0
      ]
    }
  ],
  "samplers": [
    {
    }
  ],
  "nodes": [
    {
      "name": "root",
      "mesh": 0
    }
  ],
  "materials": [
    {
      "pbrMetallicRoughness": {
        "baseColorFactor": [
          0.2176,
          0.2176,
          0.2176,
          1.0
        ],
        "metallicFactor": 0.1,
        "roughnessFactor": 0.9
      },
      "name": "default material",
      "doubleSided": true
    }
  ],
  "meshes": [
    {
      "primitives": [
        {
          "attributes": {
            "POSITION": 0,
            "NORMAL": 1
          },
          "indices": 2,
          "mode": 4,
          "material": 0
        }
      ]
    }
  ],
  "accessors": [
    {
      "bufferView": 0,
      "componentType": 5126,
      "count": 442,
      "type": "VEC3",
      "min": [
        -0.9807852804032311,
        -3.810291349799964e-16,
        -0.9920981450108551
      ],
      "max": [
        0.9914448613738104,
        1.0000000000000009,
        0.9946518923062067
      ]
    },
    {
      "bufferView": 1,
      "componentType": 5126,
      "count": 442,
      "type": "VEC3",
      "min": [
        -0.9998706357592813,
        -1.0,
        -1.0
      ],
      "max": [
        0.9982944897958907,
        1.0,
        0.9951847266721973
      ]
    },
    {
      "bufferView": 2,
      "componentType": 5123,
      "count": 1248,
      "type": "SCALAR"
    }
  ],
  "bufferViews": [
    {
      "buffer": 0,
      "byteLength": 5304,
      "target": 34962,
      "byteStride": 12
    },
    {
      "buffer": 0,
      "byteOffset": 5304,
      "byteLength": 5304,
      "target": 34962,
      "byteStride": 12
    },
    {
      "buffer": 0,
      "byteOffset": 10608,
      "byteLength": 2496,
      "target": 34963
    }
  ],
  "buffers": [
    {
      "uri": "data:application/octet-stream;base64,",
      "byteLength": 13104
    }
  ]
}