{
  "asset": {
    "version": "2.0",
    "generator": "Sketchup glTF Exporter v1.2.6 by Centaur"
  },
  "scene": 0,
  "scenes": [
    {
      "nodes": [
        0
      ]
    }
  ],
  "samplers": [
    {
    }
  ],
  "nodes": [
    {
      "name": "root",
      "mesh": 0
    }
  ],
  "materials": [
    {
      "pbrMetallicRoughness": {
        "baseColorFactor": [
          0.2176,
          0.2176,
          0.2176,
          1.0
        ],
        "metallicFactor": 0.1,
        "roughnessFactor": 0.9
      },
      "name": "default material",
      "doubleSided": true
    }
  ],
  "meshes": [
    {
      "primitives": [
        {
          "attributes": {
            "POSITION": 0,
            "NORMAL": 1
          },
          "indices": 2,
          "mode": 4,
          "material": 0
        }
      ]
    }
  ],
  "accessors": [
    {
      "bufferView": 0,
      "componentType": 5126,
      "count": 280,
      "type": "VEC3",
      "min": [
        -2.0000000000000004,
        -1.2246467991473527e-16,
        -1.9999999999999993
      ],
      "max": [
        2.0,
        1.0000000000000002,
        2.0
      ]
    },
    {
      "bufferView": 1,
      "componentType": 5126,
      "count": 280,
      "type": "VEC3",
      "min": [
        -0.9517928808833584,
        -1.0,
        -0.9517928808833586
      ],
      "max": [
        0.9517928808833593,
        1.0,
        0.9517928808833592
      ]
    },
    {
      "bufferView": 2,
      "componentType": 5123,
      "count": 756,
      "type": "SCALAR"
    }
  ],
  "bufferViews": [
    {
      "buffer": 0,
      "byteLength": 3360,
      "target": 34962,
      "byteStride": 12
    },
    {
      "buffer": 0,
      "byteOffset": 3360,
      "byteLength": 3360,
      "target": 34962,
      "byteStride": 12
    },
    {
      "buffer": 0,
      "byteOffset": 6720,
      "byteLength": 1512,
      "target": 34963
    }
  ],
  "buffers": [
    {
      "uri": "data:application/octet-stream;base64,",
      "byteLength": 8232
    }
  ]
}