{
  "asset": {
    "version": "2.0",
    "generator": "Sketchup glTF Exporter v1.2.6 by Centaur"
  },
  "scene": 0,
  "scenes": [
    {
      "nodes": [
        0
      ]
    }
  ],
  "samplers": [
    {
    }
  ],
  "nodes": [
    {
      "name": "root",
      "mesh": 0
    }
  ],
  "materials": [
    {
      "pbrMetallicRoughness": {
        "baseColorFactor": [
          0.2176,
          0.2176,
          0.2176,
          1.0
        ],
        "metallicFactor": 0.1,
        "roughnessFactor": 0.9
      },
      "name": "default material",
      "doubleSided": true
    },
    {
      "pbrMetallicRoughness": {
        "baseColorTexture": {
          "index": 0
        },
        "roughnessFactor": 0.1
      },
      "name": "Metal Rusted",
      "doubleSided": true
    }
  ],
  "images": [
    {
      "bufferView": 0,
      "mimeType": "image/jpeg"
    }
  ],
  "textures": [
    {
      "source": 0,
      "sampler": 0
    }
  ],
  "meshes": [
    {
      "primitives": [
        {
          "attributes": {
            "POSITION": 0,
            "NORMAL": 1
          },
          "indices": 5,
          "mode": 4,
          "material": 0
        },
        {
          "attributes": {
            "POSITION": 2,
            "NORMAL": 3,
            "TEXCOORD_0": 4
          },
          "indices": 6,
          "mode": 4,
          "material": 1
        }
      ]
    }
  ],
  "accessors": [
    {
      "bufferView": 1,
      "componentType": 5126,
      "count": 216,
      "type": "VEC3",
      "min": [
        -2.0000000000000004,
        -1.2246467991473527e-16,
        -1.9999999999999993
      ],
      "max": [
        2.0,
        1.0000000000000002,
        2.0
      ]
    },
    {
      "bufferView": 2,
      "componentType": 5126,
      "count": 216,
      "type": "VEC3",
      "min": [
        -0.9517928808833584,
        -1.0,
        -0.9517928808833586
      ],
      "max": [
        0.9517928808833593,
        5.828050525125221e-17,
        0.9517928808833592
      ]
    },
    {
      "bufferView": 3,
      "componentType": 5126,
      "count": 64,
      "type": "VEC3",
      "min": [
        -2.0000000000000004,
        0.9999999999999998,
        -1.9999999999999993
      ],
      "max": [
        2.0,
        1.0000000000000002,
        2.0
      ]
    },
    {
      "bufferView": 4,
      "componentType": 5126,
      "count": 64,
      "type": "VEC3",
      "min": [
        7.498798913309303e-33,
        1.0,
        -6.123233995736767e-17
      ],
      "max": [
        7.498798913309303e-33,
        1.0,
        -6.123233995736767e-17
      ]
    },
    {
      "bufferView": 5,
      "componentType": 5126,
      "count": 64,
      "type": "VEC2",
      "min": [
        -4.374453193350832,
        -3.3744531933508295
      ],
      "max": [
        4.374453193350831,
        5.374453193350831
      ]
    },
    {
      "bufferView": 6,
      "componentType": 5121,
      "count": 570,
      "type": "SCALAR"
    },
    {
      "bufferView": 7,
      "componentType": 5121,
      "count": 186,
      "type": "SCALAR"
    }
  ],
  "bufferViews": [
    {
      "buffer": 0,
      "byteLength": 15228
    },
    {
      "buffer": 0,
      "byteOffset": 15228,
      "byteLength": 2592,
      "target": 34962,
      "byteStride": 12
    },
    {
      "buffer": 0,
      "byteOffset": 17820,
      "byteLength": 2592,
      "target": 34962,
      "byteStride": 12
    },
    {
      "buffer": 0,
      "byteOffset": 20412,
      "byteLength": 768,
      "target": 34962,
      "byteStride": 12
    },
    {
      "buffer": 0,
      "byteOffset": 21180,
      "byteLength": 768,
      "target": 34962,
      "byteStride": 12
    },
    {
      "buffer": 0,
      "byteOffset": 21952,
      "byteLength": 512,
      "target": 34962,
      "byteStride": 8
    },
    {
      "buffer": 0,
      "byteOffset": 22464,
      "byteLength": 570,
      "target": 34963
    },
    {
      "buffer": 0,
      "byteOffset": 23034,
      "byteLength": 186,
      "target": 34963
    }
  ],
  "buffers": [
    {
      "uri": "data:application/octet-stream;base64,",
      "byteLength": 23220
    }
  ]
}